<svg width="128" height="128" viewBox="0 0 128 128" fill="none" xmlns="http://www.w3.org/2000/svg">
<rect width="128" height="128" rx="16" fill="#48D0A8"/>
<g clip-path="url(#clip0_1_3)">
<mask id="mask0_1_3" style="mask-type:luminance" maskUnits="userSpaceOnUse" x="16" y="16" width="96" height="96">
<path d="M112 16H16V112H112V16Z" fill="white"/>
</mask>
<g mask="url(#mask0_1_3)">
<path d="M73.4052 78.9166L75.7644 81.2766L78.5225 84.0203L79.5853 85.0907L85.0884 79.5837L78.9179 73.4037L73.4052 78.9166Z" fill="#1B2528"/>
<path d="M90.7 79.5471L109.69 98.5372C111.119 99.9614 112.006 101.939 112 104.114C112 106.293 111.119 108.269 109.69 109.699C108.266 111.122 106.294 112 104.115 112C101.937 112 99.9662 111.122 98.5372 109.694L79.5477 90.7024L90.7 79.5471Z" fill="#1B2528"/>
<path d="M88.0792 82.1719L89.6222 80.6258L108.615 99.6184C109.814 100.818 110.473 102.414 110.473 104.113C110.473 105.817 109.811 107.416 108.615 108.617C108.397 108.827 108.117 108.933 107.841 108.933C107.56 108.933 107.281 108.827 107.065 108.615C106.641 108.186 106.641 107.5 107.065 107.074C107.856 106.285 108.289 105.228 108.289 104.111C108.292 102.997 107.857 101.948 107.07 101.163L88.0792 82.1719Z" fill="#1B2528"/>
<path d="M79.5468 90.7024L90.7 79.5462L89.8683 78.7124C89.3662 78.2084 88.6797 77.9022 87.9166 77.9022C87.1486 77.9022 86.4603 78.2071 85.9631 78.7086L78.7102 85.9653C78.212 86.4597 77.901 87.148 77.901 87.9169C77.901 88.6744 78.2115 89.3714 78.7102 89.8628L79.5468 90.7024Z" fill="#1B2528"/>
<path fill-rule="evenodd" clip-rule="evenodd" d="M51.6568 16.001C31.9643 16.001 16 31.9672 16 51.6558C16 71.3497 31.9643 87.3137 51.6568 87.3183C71.3494 87.3137 87.3147 71.3503 87.3147 51.6558C87.3147 31.9682 71.3513 16.001 51.6568 16.001ZM83.4535 51.6552C83.4535 69.2199 69.2134 83.4547 51.6568 83.4547C34.0975 83.4547 19.8591 69.2199 19.8591 51.6556C19.8591 34.1001 34.0975 19.8618 51.6568 19.8614C69.2138 19.8614 83.4535 34.1007 83.4535 51.6552Z" fill="#1B2528"/>
</g>
</g>
<defs>
<clipPath id="clip0_1_3">
<rect width="96" height="96" fill="white" transform="translate(16 16)"/>
</clipPath>
</defs>
</svg>
