<svg width="30" height="30" viewBox="0 0 30 30" fill="none" xmlns="http://www.w3.org/2000/svg">
<path id="Vector" d="M29.7157 28.3679L21.9702 20.7461C23.9985 18.5424 25.2448 15.628 25.2448 12.421C25.2438 5.56065 19.5931 0 12.6221 0C5.65106 0 0.000366211 5.56065 0.000366211 12.421C0.000366211 19.2814 5.65106 24.842 12.6221 24.842C15.634 24.842 18.3965 23.8002 20.5665 22.0683L28.342 29.7201C28.7209 30.0933 29.336 30.0933 29.7148 29.7201C30.0946 29.3469 30.0946 28.7411 29.7157 28.3679ZM12.6221 22.931C6.72383 22.931 1.94239 18.2255 1.94239 12.421C1.94239 6.61651 6.72383 1.91105 12.6221 1.91105C18.5204 1.91105 23.3017 6.61651 23.3017 12.421C23.3017 18.2255 18.5204 22.931 12.6221 22.931Z" fill="white"/>
</svg>
