<svg width="93" height="16" viewBox="0 0 93 16" fill="none" xmlns="http://www.w3.org/2000/svg">
<path d="M10.7727 4H9.36364C9.2803 3.5947 9.13447 3.23864 8.92614 2.93182C8.72159 2.625 8.47159 2.36742 8.17614 2.15909C7.88447 1.94697 7.56061 1.78788 7.20455 1.68182C6.84849 1.57576 6.47727 1.52273 6.09091 1.52273C5.38636 1.52273 4.74811 1.70076 4.17614 2.05682C3.60795 2.41288 3.1553 2.9375 2.81818 3.63068C2.48485 4.32386 2.31818 5.17424 2.31818 6.18182C2.31818 7.18939 2.48485 8.03977 2.81818 8.73295C3.1553 9.42614 3.60795 9.95076 4.17614 10.3068C4.74811 10.6629 5.38636 10.8409 6.09091 10.8409C6.47727 10.8409 6.84849 10.7879 7.20455 10.6818C7.56061 10.5758 7.88447 10.4186 8.17614 10.2102C8.47159 9.99811 8.72159 9.73864 8.92614 9.43182C9.13447 9.12121 9.2803 8.76515 9.36364 8.36364H10.7727C10.6667 8.95833 10.4735 9.49053 10.1932 9.96023C9.91288 10.4299 9.56439 10.8295 9.14773 11.1591C8.73106 11.4848 8.26326 11.733 7.74432 11.9034C7.22917 12.0739 6.67803 12.1591 6.09091 12.1591C5.09849 12.1591 4.21591 11.9167 3.44318 11.4318C2.67045 10.947 2.0625 10.2576 1.61932 9.36364C1.17614 8.4697 0.954545 7.40909 0.954545 6.18182C0.954545 4.95455 1.17614 3.89394 1.61932 3C2.0625 2.10606 2.67045 1.41667 3.44318 0.931818C4.21591 0.446969 5.09849 0.204545 6.09091 0.204545C6.67803 0.204545 7.22917 0.289772 7.74432 0.460227C8.26326 0.630682 8.73106 0.880682 9.14773 1.21023C9.56439 1.53598 9.91288 1.93371 10.1932 2.40341C10.4735 2.86932 10.6667 3.40151 10.7727 4ZM16.4134 12.1818C15.6255 12.1818 14.9342 11.9943 14.3395 11.6193C13.7486 11.2443 13.2865 10.7197 12.9531 10.0455C12.6236 9.37121 12.4588 8.58333 12.4588 7.68182C12.4588 6.77273 12.6236 5.97917 12.9531 5.30114C13.2865 4.62311 13.7486 4.09659 14.3395 3.72159C14.9342 3.34659 15.6255 3.15909 16.4134 3.15909C17.2012 3.15909 17.8906 3.34659 18.4815 3.72159C19.0762 4.09659 19.5384 4.62311 19.8679 5.30114C20.2012 5.97917 20.3679 6.77273 20.3679 7.68182C20.3679 8.58333 20.2012 9.37121 19.8679 10.0455C19.5384 10.7197 19.0762 11.2443 18.4815 11.6193C17.8906 11.9943 17.2012 12.1818 16.4134 12.1818ZM16.4134 10.9773C17.0118 10.9773 17.5043 10.8239 17.8906 10.517C18.277 10.2102 18.563 9.80682 18.7486 9.30682C18.9342 8.80682 19.027 8.26515 19.027 7.68182C19.027 7.09848 18.9342 6.55492 18.7486 6.05114C18.563 5.54735 18.277 5.14015 17.8906 4.82955C17.5043 4.51894 17.0118 4.36364 16.4134 4.36364C15.8149 4.36364 15.3224 4.51894 14.9361 4.82955C14.5497 5.14015 14.2637 5.54735 14.0781 6.05114C13.8925 6.55492 13.7997 7.09848 13.7997 7.68182C13.7997 8.26515 13.8925 8.80682 14.0781 9.30682C14.2637 9.80682 14.5497 10.2102 14.9361 10.517C15.3224 10.8239 15.8149 10.9773 16.4134 10.9773ZM23.7557 6.75V12H22.4148V3.27273H23.7102V4.63636H23.8239C24.0284 4.19318 24.339 3.83712 24.7557 3.56818C25.1723 3.29545 25.7102 3.15909 26.3693 3.15909C26.9602 3.15909 27.4773 3.2803 27.9205 3.52273C28.3636 3.76136 28.7083 4.125 28.9545 4.61364C29.2008 5.09848 29.3239 5.71212 29.3239 6.45455V12H27.983V6.54545C27.983 5.85985 27.8049 5.32576 27.4489 4.94318C27.0928 4.55682 26.6042 4.36364 25.983 4.36364C25.5549 4.36364 25.1723 4.45644 24.8352 4.64205C24.5019 4.82765 24.2386 5.09848 24.0455 5.45455C23.8523 5.81061 23.7557 6.24242 23.7557 6.75ZM35.5696 3.27273V4.40909H31.0469V3.27273H35.5696ZM32.3651 1.18182H33.706V9.5C33.706 9.87879 33.7609 10.1629 33.8707 10.3523C33.9844 10.5379 34.1283 10.6629 34.3026 10.7273C34.4806 10.7879 34.6681 10.8182 34.8651 10.8182C35.0128 10.8182 35.134 10.8106 35.2287 10.7955C35.3234 10.7765 35.3991 10.7614 35.456 10.75L35.7287 11.9545C35.6378 11.9886 35.5109 12.0227 35.348 12.0568C35.1851 12.0947 34.9787 12.1136 34.7287 12.1136C34.3499 12.1136 33.9787 12.0322 33.6151 11.8693C33.2552 11.7064 32.956 11.4583 32.7173 11.125C32.4825 10.7917 32.3651 10.3712 32.3651 9.86364V1.18182ZM37.5866 12V3.27273H38.8821V4.59091H38.973C39.1321 4.15909 39.42 3.80871 39.8366 3.53977C40.2533 3.27083 40.723 3.13636 41.2457 3.13636C41.3442 3.13636 41.4673 3.13826 41.6151 3.14205C41.7628 3.14583 41.8745 3.15152 41.9503 3.15909V4.52273C41.9048 4.51136 41.8007 4.49432 41.6378 4.47159C41.4787 4.44508 41.3101 4.43182 41.1321 4.43182C40.7079 4.43182 40.3291 4.52083 39.9957 4.69886C39.6662 4.87311 39.4048 5.11553 39.2116 5.42614C39.0223 5.73295 38.9276 6.08333 38.9276 6.47727V12H37.5866ZM43.5398 12V3.27273H44.8807V12H43.5398ZM44.2216 1.81818C43.9602 1.81818 43.7348 1.72917 43.5455 1.55114C43.3598 1.37311 43.267 1.15909 43.267 0.909091C43.267 0.659091 43.3598 0.445076 43.5455 0.267045C43.7348 0.089015 43.9602 0 44.2216 0C44.483 0 44.7064 0.089015 44.892 0.267045C45.0814 0.445076 45.1761 0.659091 45.1761 0.909091C45.1761 1.15909 45.0814 1.37311 44.892 1.55114C44.7064 1.72917 44.483 1.81818 44.2216 1.81818ZM47.5185 12V0.363636H48.8594V4.65909H48.973C49.0715 4.50758 49.2079 4.31439 49.3821 4.07955C49.5601 3.84091 49.8139 3.62879 50.1435 3.44318C50.4768 3.25379 50.9276 3.15909 51.4957 3.15909C52.2306 3.15909 52.8783 3.3428 53.4389 3.71023C53.9995 4.07765 54.437 4.59848 54.7514 5.27273C55.0658 5.94697 55.223 6.74242 55.223 7.65909C55.223 8.58333 55.0658 9.38447 54.7514 10.0625C54.437 10.7367 54.0014 11.2595 53.4446 11.6307C52.8878 11.9981 52.2457 12.1818 51.5185 12.1818C50.9579 12.1818 50.509 12.089 50.1719 11.9034C49.8348 11.714 49.5753 11.5 49.3935 11.2614C49.2116 11.0189 49.0715 10.8182 48.973 10.6591H48.8139V12H47.5185ZM48.8366 7.63636C48.8366 8.29545 48.9332 8.87689 49.1264 9.38068C49.3196 9.88068 49.6018 10.2727 49.973 10.5568C50.3442 10.8371 50.7988 10.9773 51.3366 10.9773C51.8973 10.9773 52.3651 10.8295 52.7401 10.5341C53.1188 10.2348 53.4029 9.83333 53.5923 9.32955C53.7855 8.82197 53.8821 8.25758 53.8821 7.63636C53.8821 7.02273 53.7874 6.4697 53.598 5.97727C53.4124 5.48106 53.1302 5.08902 52.7514 4.80114C52.3764 4.50947 51.9048 4.36364 51.3366 4.36364C50.7912 4.36364 50.3329 4.50189 49.9616 4.77841C49.5904 5.05114 49.3101 5.43371 49.1207 5.92614C48.9313 6.41477 48.8366 6.98485 48.8366 7.63636ZM62.7741 8.43182V3.27273H64.1151V12H62.7741V10.5227H62.6832C62.4787 10.9659 62.1605 11.3428 61.7287 11.6534C61.2969 11.9602 60.7514 12.1136 60.0923 12.1136C59.5469 12.1136 59.062 11.9943 58.6378 11.7557C58.2135 11.5133 57.8802 11.1496 57.6378 10.6648C57.3954 10.1761 57.2741 9.56061 57.2741 8.81818V3.27273H58.6151V8.72727C58.6151 9.36364 58.7931 9.87121 59.1491 10.25C59.509 10.6288 59.9673 10.8182 60.5241 10.8182C60.8575 10.8182 61.1965 10.733 61.5412 10.5625C61.8897 10.392 62.1813 10.1307 62.4162 9.77841C62.6548 9.42614 62.7741 8.97727 62.7741 8.43182ZM70.3665 3.27273V4.40909H65.8438V3.27273H70.3665ZM67.1619 1.18182H68.5028V9.5C68.5028 9.87879 68.5578 10.1629 68.6676 10.3523C68.7813 10.5379 68.9252 10.6629 69.0994 10.7273C69.2775 10.7879 69.465 10.8182 69.6619 10.8182C69.8097 10.8182 69.9309 10.8106 70.0256 10.7955C70.1203 10.7765 70.196 10.7614 70.2528 10.75L70.5256 11.9545C70.4347 11.9886 70.3078 12.0227 70.1449 12.0568C69.982 12.0947 69.7756 12.1136 69.5256 12.1136C69.1468 12.1136 68.7756 12.0322 68.4119 11.8693C68.0521 11.7064 67.7528 11.4583 67.5142 11.125C67.2794 10.7917 67.1619 10.3712 67.1619 9.86364V1.18182ZM72.3835 12V3.27273H73.7244V12H72.3835ZM73.0653 1.81818C72.804 1.81818 72.5786 1.72917 72.3892 1.55114C72.2036 1.37311 72.1108 1.15909 72.1108 0.909091C72.1108 0.659091 72.2036 0.445076 72.3892 0.267045C72.5786 0.089015 72.804 0 73.0653 0C73.3267 0 73.5502 0.089015 73.7358 0.267045C73.9252 0.445076 74.0199 0.659091 74.0199 0.909091C74.0199 1.15909 73.9252 1.37311 73.7358 1.55114C73.5502 1.72917 73.3267 1.81818 73.0653 1.81818ZM77.5213 6.75V12H76.1804V3.27273H77.4759V4.63636H77.5895C77.794 4.19318 78.1046 3.83712 78.5213 3.56818C78.938 3.29545 79.4759 3.15909 80.1349 3.15909C80.7259 3.15909 81.2429 3.2803 81.6861 3.52273C82.1293 3.76136 82.474 4.125 82.7202 4.61364C82.9664 5.09848 83.0895 5.71212 83.0895 6.45455V12H81.7486V6.54545C81.7486 5.85985 81.5705 5.32576 81.2145 4.94318C80.8584 4.55682 80.3698 4.36364 79.7486 4.36364C79.3205 4.36364 78.938 4.45644 78.6009 4.64205C78.2675 4.82765 78.0043 5.09848 77.8111 5.45455C77.6179 5.81061 77.5213 6.24242 77.5213 6.75ZM89.0625 15.4545C88.4148 15.4545 87.858 15.3712 87.392 15.2045C86.9261 15.0417 86.5379 14.8258 86.2273 14.5568C85.9205 14.2917 85.6761 14.0076 85.4943 13.7045L86.5625 12.9545C86.6837 13.1136 86.8371 13.2955 87.0227 13.5C87.2083 13.7083 87.4621 13.8883 87.7841 14.0398C88.1098 14.1951 88.536 14.2727 89.0625 14.2727C89.767 14.2727 90.3485 14.1023 90.8068 13.7614C91.2652 13.4205 91.4943 12.8864 91.4943 12.1591V10.3864H91.3807C91.2822 10.5455 91.142 10.7424 90.9602 10.9773C90.7822 11.2083 90.5246 11.4148 90.1875 11.5966C89.8542 11.7746 89.4034 11.8636 88.8352 11.8636C88.1307 11.8636 87.4981 11.697 86.9375 11.3636C86.3807 11.0303 85.9394 10.5455 85.6136 9.90909C85.2917 9.27273 85.1307 8.5 85.1307 7.59091C85.1307 6.69697 85.2879 5.91856 85.6023 5.25568C85.9167 4.58901 86.3542 4.07386 86.9148 3.71023C87.4754 3.3428 88.1231 3.15909 88.858 3.15909C89.4261 3.15909 89.8769 3.25379 90.2102 3.44318C90.5473 3.62879 90.8049 3.84091 90.983 4.07955C91.1648 4.31439 91.3049 4.50758 91.4034 4.65909H91.5398V3.27273H92.8352V12.25C92.8352 13 92.6648 13.6098 92.3239 14.0795C91.9867 14.553 91.5322 14.8996 90.9602 15.1193C90.392 15.3428 89.7595 15.4545 89.0625 15.4545ZM89.017 10.6591C89.5549 10.6591 90.0095 10.536 90.3807 10.2898C90.7519 10.0436 91.0341 9.68939 91.2273 9.22727C91.4205 8.76515 91.517 8.21212 91.517 7.56818C91.517 6.93939 91.4223 6.38447 91.233 5.90341C91.0436 5.42235 90.7633 5.04545 90.392 4.77273C90.0208 4.5 89.5625 4.36364 89.017 4.36364C88.4489 4.36364 87.9754 4.50758 87.5966 4.79545C87.2216 5.08333 86.9394 5.4697 86.75 5.95455C86.5644 6.43939 86.4716 6.97727 86.4716 7.56818C86.4716 8.17424 86.5663 8.71023 86.7557 9.17614C86.9489 9.63826 87.233 10.0019 87.608 10.267C87.9867 10.5284 88.4564 10.6591 89.017 10.6591Z" fill="#128DA1"/>
</svg>
