<svg width="116" height="16" viewBox="0 0 116 16" fill="none" xmlns="http://www.w3.org/2000/svg">
<path d="M9.36364 4C9.23864 3.61742 9.07386 3.27462 8.86932 2.97159C8.66856 2.66477 8.42803 2.40341 8.14773 2.1875C7.87121 1.97159 7.55682 1.80682 7.20455 1.69318C6.85227 1.57955 6.46591 1.52273 6.04545 1.52273C5.35606 1.52273 4.72917 1.70076 4.16477 2.05682C3.60038 2.41288 3.15152 2.9375 2.81818 3.63068C2.48485 4.32386 2.31818 5.17424 2.31818 6.18182C2.31818 7.18939 2.48674 8.03977 2.82386 8.73295C3.16098 9.42614 3.61742 9.95076 4.19318 10.3068C4.76894 10.6629 5.41667 10.8409 6.13636 10.8409C6.80303 10.8409 7.39015 10.6989 7.89773 10.4148C8.40909 10.1269 8.80682 9.72159 9.09091 9.19886C9.37879 8.67235 9.52273 8.05303 9.52273 7.34091L9.95455 7.43182H6.45455V6.18182H10.8864V7.43182C10.8864 8.39015 10.6818 9.22348 10.2727 9.93182C9.86742 10.6402 9.30682 11.1894 8.59091 11.5795C7.87879 11.9659 7.06061 12.1591 6.13636 12.1591C5.10606 12.1591 4.20076 11.9167 3.42045 11.4318C2.64394 10.947 2.03788 10.2576 1.60227 9.36364C1.17045 8.4697 0.954545 7.40909 0.954545 6.18182C0.954545 5.26136 1.07765 4.43371 1.32386 3.69886C1.57386 2.96023 1.92614 2.33144 2.38068 1.8125C2.83523 1.29356 3.37311 0.895833 3.99432 0.619318C4.61553 0.342803 5.29924 0.204545 6.04545 0.204545C6.65909 0.204545 7.23106 0.297348 7.76136 0.482954C8.29545 0.664772 8.77083 0.924242 9.1875 1.26136C9.60795 1.5947 9.95833 1.99432 10.2386 2.46023C10.5189 2.92235 10.7121 3.43561 10.8182 4H9.36364ZM16.777 12.1818C15.9361 12.1818 15.2107 11.9962 14.6009 11.625C13.9948 11.25 13.527 10.7273 13.1974 10.0568C12.8717 9.38258 12.7088 8.59848 12.7088 7.70455C12.7088 6.81061 12.8717 6.02273 13.1974 5.34091C13.527 4.6553 13.9853 4.12121 14.5724 3.73864C15.1634 3.35227 15.8527 3.15909 16.6406 3.15909C17.0952 3.15909 17.544 3.23485 17.9872 3.38636C18.4304 3.53788 18.8338 3.78409 19.1974 4.125C19.5611 4.46212 19.8509 4.90909 20.0668 5.46591C20.2827 6.02273 20.3906 6.70833 20.3906 7.52273V8.09091H13.6634V6.93182H19.027C19.027 6.43939 18.9285 6 18.7315 5.61364C18.5384 5.22727 18.2618 4.92235 17.902 4.69886C17.5459 4.47538 17.1255 4.36364 16.6406 4.36364C16.1065 4.36364 15.6444 4.49621 15.2543 4.76136C14.8679 5.02273 14.5705 5.36364 14.3622 5.78409C14.1539 6.20455 14.0497 6.6553 14.0497 7.13636V7.90909C14.0497 8.56818 14.1634 9.12689 14.3906 9.58523C14.6217 10.0398 14.9418 10.3864 15.3509 10.625C15.7599 10.8598 16.2353 10.9773 16.777 10.9773C17.1293 10.9773 17.4474 10.928 17.7315 10.8295C18.0194 10.7273 18.2675 10.5758 18.4759 10.375C18.6842 10.1705 18.8452 9.91667 18.9588 9.61364L20.2543 9.97727C20.1179 10.4167 19.8887 10.803 19.5668 11.1364C19.2448 11.4659 18.8471 11.7235 18.3736 11.9091C17.9001 12.0909 17.3679 12.1818 16.777 12.1818ZM26.2259 3.27273V4.40909H21.7031V3.27273H26.2259ZM23.0213 1.18182H24.3622V9.5C24.3622 9.87879 24.4171 10.1629 24.527 10.3523C24.6406 10.5379 24.7846 10.6629 24.9588 10.7273C25.1368 10.7879 25.3243 10.8182 25.5213 10.8182C25.669 10.8182 25.7902 10.8106 25.8849 10.7955C25.9796 10.7765 26.0554 10.7614 26.1122 10.75L26.3849 11.9545C26.294 11.9886 26.1671 12.0227 26.0043 12.0568C25.8414 12.0947 25.6349 12.1136 25.3849 12.1136C25.0062 12.1136 24.6349 12.0322 24.2713 11.8693C23.9115 11.7064 23.6122 11.4583 23.3736 11.125C23.1387 10.7917 23.0213 10.3712 23.0213 9.86364V1.18182ZM32.0384 3.27273V4.40909H27.5156V3.27273H32.0384ZM28.8338 1.18182H30.1747V9.5C30.1747 9.87879 30.2296 10.1629 30.3395 10.3523C30.4531 10.5379 30.5971 10.6629 30.7713 10.7273C30.9493 10.7879 31.1368 10.8182 31.3338 10.8182C31.4815 10.8182 31.6027 10.8106 31.6974 10.7955C31.7921 10.7765 31.8679 10.7614 31.9247 10.75L32.1974 11.9545C32.1065 11.9886 31.9796 12.0227 31.8168 12.0568C31.6539 12.0947 31.4474 12.1136 31.1974 12.1136C30.8187 12.1136 30.4474 12.0322 30.0838 11.8693C29.724 11.7064 29.4247 11.4583 29.1861 11.125C28.9512 10.7917 28.8338 10.3712 28.8338 9.86364V1.18182ZM34.0554 12V3.27273H35.3963V12H34.0554ZM34.7372 1.81818C34.4759 1.81818 34.2505 1.72917 34.0611 1.55114C33.8755 1.37311 33.7827 1.15909 33.7827 0.909091C33.7827 0.659091 33.8755 0.445076 34.0611 0.267045C34.2505 0.089015 34.4759 0 34.7372 0C34.9986 0 35.2221 0.089015 35.4077 0.267045C35.5971 0.445076 35.6918 0.659091 35.6918 0.909091C35.6918 1.15909 35.5971 1.37311 35.4077 1.55114C35.2221 1.72917 34.9986 1.81818 34.7372 1.81818ZM39.1932 6.75V12H37.8523V3.27273H39.1477V4.63636H39.2614C39.4659 4.19318 39.7765 3.83712 40.1932 3.56818C40.6098 3.29545 41.1477 3.15909 41.8068 3.15909C42.3977 3.15909 42.9148 3.2803 43.358 3.52273C43.8011 3.76136 44.1458 4.125 44.392 4.61364C44.6383 5.09848 44.7614 5.71212 44.7614 6.45455V12H43.4205V6.54545C43.4205 5.85985 43.2424 5.32576 42.8864 4.94318C42.5303 4.55682 42.0417 4.36364 41.4205 4.36364C40.9924 4.36364 40.6098 4.45644 40.2727 4.64205C39.9394 4.82765 39.6761 5.09848 39.483 5.45455C39.2898 5.81061 39.1932 6.24242 39.1932 6.75ZM50.7344 15.4545C50.0866 15.4545 49.5298 15.3712 49.0639 15.2045C48.598 15.0417 48.2098 14.8258 47.8991 14.5568C47.5923 14.2917 47.348 14.0076 47.1662 13.7045L48.2344 12.9545C48.3556 13.1136 48.509 13.2955 48.6946 13.5C48.8802 13.7083 49.134 13.8883 49.456 14.0398C49.7817 14.1951 50.2079 14.2727 50.7344 14.2727C51.4389 14.2727 52.0204 14.1023 52.4787 13.7614C52.937 13.4205 53.1662 12.8864 53.1662 12.1591V10.3864H53.0526C52.9541 10.5455 52.8139 10.7424 52.6321 10.9773C52.4541 11.2083 52.1965 11.4148 51.8594 11.5966C51.526 11.7746 51.0753 11.8636 50.5071 11.8636C49.8026 11.8636 49.17 11.697 48.6094 11.3636C48.0526 11.0303 47.6113 10.5455 47.2855 9.90909C46.9635 9.27273 46.8026 8.5 46.8026 7.59091C46.8026 6.69697 46.9598 5.91856 47.2741 5.25568C47.5885 4.58901 48.026 4.07386 48.5866 3.71023C49.1473 3.3428 49.795 3.15909 50.5298 3.15909C51.098 3.15909 51.5488 3.25379 51.8821 3.44318C52.2192 3.62879 52.4768 3.84091 52.6548 4.07955C52.8366 4.31439 52.9768 4.50758 53.0753 4.65909H53.2116V3.27273H54.5071V12.25C54.5071 13 54.3366 13.6098 53.9957 14.0795C53.6586 14.553 53.2041 14.8996 52.6321 15.1193C52.0639 15.3428 51.4313 15.4545 50.7344 15.4545ZM50.6889 10.6591C51.2268 10.6591 51.6813 10.536 52.0526 10.2898C52.4238 10.0436 52.706 9.68939 52.8991 9.22727C53.0923 8.76515 53.1889 8.21212 53.1889 7.56818C53.1889 6.93939 53.0942 6.38447 52.9048 5.90341C52.7154 5.42235 52.4351 5.04545 52.0639 4.77273C51.6927 4.5 51.2344 4.36364 50.6889 4.36364C50.1207 4.36364 49.6473 4.50758 49.2685 4.79545C48.8935 5.08333 48.6113 5.4697 48.4219 5.95455C48.2363 6.43939 48.1435 6.97727 48.1435 7.56818C48.1435 8.17424 48.2382 8.71023 48.4276 9.17614C48.6207 9.63826 48.9048 10.0019 49.2798 10.267C49.6586 10.5284 50.1283 10.6591 50.6889 10.6591ZM68.0071 3.27273C67.9389 2.69697 67.6624 2.25 67.1776 1.93182C66.6927 1.61364 66.098 1.45455 65.3935 1.45455C64.8783 1.45455 64.4276 1.53788 64.0412 1.70455C63.6586 1.87121 63.3594 2.10038 63.1435 2.39205C62.9313 2.68371 62.8253 3.01515 62.8253 3.38636C62.8253 3.69697 62.8991 3.96401 63.0469 4.1875C63.1984 4.4072 63.3916 4.59091 63.6264 4.73864C63.8613 4.88258 64.1075 5.00189 64.3651 5.09659C64.6226 5.1875 64.8594 5.26136 65.0753 5.31818L66.2571 5.63636C66.5601 5.71591 66.8973 5.82576 67.2685 5.96591C67.6435 6.10606 68.0014 6.29735 68.3423 6.53977C68.687 6.77841 68.9711 7.08523 69.1946 7.46023C69.4181 7.83523 69.5298 8.29545 69.5298 8.84091C69.5298 9.4697 69.3651 10.0379 69.0355 10.5455C68.7098 11.053 68.2325 11.4564 67.6037 11.7557C66.9787 12.0549 66.2192 12.2045 65.3253 12.2045C64.492 12.2045 63.7704 12.0701 63.1605 11.8011C62.5545 11.5322 62.0772 11.1572 61.7287 10.6761C61.384 10.1951 61.1889 9.63636 61.1435 9H62.598C62.6359 9.43939 62.7836 9.80303 63.0412 10.0909C63.3026 10.375 63.6321 10.5871 64.0298 10.7273C64.4313 10.8636 64.8632 10.9318 65.3253 10.9318C65.8632 10.9318 66.3461 10.8447 66.7741 10.6705C67.2022 10.4924 67.5412 10.2462 67.7912 9.93182C68.0412 9.61364 68.1662 9.24242 68.1662 8.81818C68.1662 8.43182 68.0582 8.11742 67.8423 7.875C67.6264 7.63258 67.3423 7.43561 66.9901 7.28409C66.6378 7.13258 66.2571 7 65.848 6.88636L64.4162 6.47727C63.5071 6.21591 62.7874 5.8428 62.2571 5.35795C61.7268 4.87311 61.4616 4.23864 61.4616 3.45455C61.4616 2.80303 61.6378 2.23485 61.9901 1.75C62.3461 1.26136 62.8234 0.882575 63.4219 0.613636C64.0241 0.340909 64.6965 0.204545 65.4389 0.204545C66.1889 0.204545 66.8556 0.339015 67.4389 0.607954C68.0223 0.873105 68.4844 1.23674 68.8253 1.69886C69.17 2.16098 69.3518 2.68561 69.3707 3.27273H68.0071ZM75.4602 3.27273V4.40909H70.9375V3.27273H75.4602ZM72.2557 1.18182H73.5966V9.5C73.5966 9.87879 73.6515 10.1629 73.7614 10.3523C73.875 10.5379 74.0189 10.6629 74.1932 10.7273C74.3712 10.7879 74.5587 10.8182 74.7557 10.8182C74.9034 10.8182 75.0246 10.8106 75.1193 10.7955C75.214 10.7765 75.2898 10.7614 75.3466 10.75L75.6193 11.9545C75.5284 11.9886 75.4015 12.0227 75.2386 12.0568C75.0758 12.0947 74.8693 12.1136 74.6193 12.1136C74.2405 12.1136 73.8693 12.0322 73.5057 11.8693C73.1458 11.7064 72.8466 11.4583 72.608 11.125C72.3731 10.7917 72.2557 10.3712 72.2557 9.86364V1.18182ZM80.0455 12.2045C79.4924 12.2045 78.9905 12.1004 78.5398 11.892C78.089 11.6799 77.7311 11.375 77.4659 10.9773C77.2008 10.5758 77.0682 10.0909 77.0682 9.52273C77.0682 9.02273 77.1667 8.61742 77.3636 8.30682C77.5606 7.99242 77.8239 7.74621 78.1534 7.56818C78.483 7.39015 78.8466 7.25758 79.2443 7.17045C79.6458 7.07955 80.0492 7.00758 80.4545 6.95455C80.9848 6.88636 81.4148 6.83523 81.7443 6.80114C82.0777 6.76326 82.3201 6.70076 82.4716 6.61364C82.6269 6.52652 82.7045 6.375 82.7045 6.15909V6.11364C82.7045 5.55303 82.5511 5.11742 82.2443 4.80682C81.9413 4.49621 81.4811 4.34091 80.8636 4.34091C80.2235 4.34091 79.7216 4.48106 79.358 4.76136C78.9943 5.04167 78.7386 5.34091 78.5909 5.65909L77.3182 5.20455C77.5455 4.67424 77.8485 4.26136 78.2273 3.96591C78.6098 3.66667 79.0265 3.45833 79.4773 3.34091C79.9318 3.2197 80.3788 3.15909 80.8182 3.15909C81.0985 3.15909 81.4205 3.19318 81.7841 3.26136C82.1515 3.32576 82.5057 3.46023 82.8466 3.66477C83.1913 3.86932 83.4773 4.17803 83.7045 4.59091C83.9318 5.00379 84.0455 5.55682 84.0455 6.25V12H82.7045V10.8182H82.6364C82.5455 11.0076 82.3939 11.2102 82.1818 11.4261C81.9697 11.642 81.6875 11.8258 81.3352 11.9773C80.983 12.1288 80.553 12.2045 80.0455 12.2045ZM80.25 11C80.7803 11 81.2273 10.8958 81.5909 10.6875C81.9583 10.4792 82.2348 10.2102 82.4205 9.88068C82.6098 9.55114 82.7045 9.20455 82.7045 8.84091V7.61364C82.6477 7.68182 82.5227 7.74432 82.3295 7.80114C82.1402 7.85417 81.9205 7.90151 81.6705 7.94318C81.4242 7.98106 81.1837 8.01515 80.9489 8.04545C80.7178 8.07197 80.5303 8.0947 80.3864 8.11364C80.0379 8.15909 79.7121 8.23295 79.4091 8.33523C79.1098 8.43371 78.8674 8.58333 78.6818 8.78409C78.5 8.98106 78.4091 9.25 78.4091 9.59091C78.4091 10.0568 78.5814 10.4091 78.9261 10.6477C79.2746 10.8826 79.7159 11 80.25 11ZM86.4929 12V3.27273H87.7884V4.59091H87.8793C88.0384 4.15909 88.3262 3.80871 88.7429 3.53977C89.1596 3.27083 89.6293 3.13636 90.152 3.13636C90.2505 3.13636 90.3736 3.13826 90.5213 3.14205C90.669 3.14583 90.7808 3.15152 90.8565 3.15909V4.52273C90.8111 4.51136 90.7069 4.49432 90.544 4.47159C90.3849 4.44508 90.2164 4.43182 90.0384 4.43182C89.6141 4.43182 89.2353 4.52083 88.902 4.69886C88.5724 4.87311 88.3111 5.11553 88.1179 5.42614C87.9285 5.73295 87.8338 6.08333 87.8338 6.47727V12H86.4929ZM96.7884 3.27273V4.40909H92.2656V3.27273H96.7884ZM93.5838 1.18182H94.9247V9.5C94.9247 9.87879 94.9796 10.1629 95.0895 10.3523C95.2031 10.5379 95.3471 10.6629 95.5213 10.7273C95.6993 10.7879 95.8868 10.8182 96.0838 10.8182C96.2315 10.8182 96.3527 10.8106 96.4474 10.7955C96.5421 10.7765 96.6179 10.7614 96.6747 10.75L96.9474 11.9545C96.8565 11.9886 96.7296 12.0227 96.5668 12.0568C96.4039 12.0947 96.1974 12.1136 95.9474 12.1136C95.5687 12.1136 95.1974 12.0322 94.8338 11.8693C94.474 11.7064 94.1747 11.4583 93.9361 11.125C93.7012 10.7917 93.5838 10.3712 93.5838 9.86364V1.18182ZM102.371 12.1818C101.53 12.1818 100.804 11.9962 100.195 11.625C99.5885 11.25 99.1207 10.7273 98.7912 10.0568C98.4654 9.38258 98.3026 8.59848 98.3026 7.70455C98.3026 6.81061 98.4654 6.02273 98.7912 5.34091C99.1207 4.6553 99.5791 4.12121 100.166 3.73864C100.757 3.35227 101.446 3.15909 102.234 3.15909C102.689 3.15909 103.138 3.23485 103.581 3.38636C104.024 3.53788 104.428 3.78409 104.791 4.125C105.155 4.46212 105.445 4.90909 105.661 5.46591C105.876 6.02273 105.984 6.70833 105.984 7.52273V8.09091H99.2571V6.93182H104.621C104.621 6.43939 104.522 6 104.325 5.61364C104.132 5.22727 103.856 4.92235 103.496 4.69886C103.14 4.47538 102.719 4.36364 102.234 4.36364C101.7 4.36364 101.238 4.49621 100.848 4.76136C100.462 5.02273 100.164 5.36364 99.956 5.78409C99.7476 6.20455 99.6435 6.6553 99.6435 7.13636V7.90909C99.6435 8.56818 99.7571 9.12689 99.9844 9.58523C100.215 10.0398 100.536 10.3864 100.945 10.625C101.354 10.8598 101.829 10.9773 102.371 10.9773C102.723 10.9773 103.041 10.928 103.325 10.8295C103.613 10.7273 103.861 10.5758 104.07 10.375C104.278 10.1705 104.439 9.91667 104.553 9.61364L105.848 9.97727C105.712 10.4167 105.482 10.803 105.161 11.1364C104.839 11.4659 104.441 11.7235 103.967 11.9091C103.494 12.0909 102.962 12.1818 102.371 12.1818ZM111.32 12.1818C110.592 12.1818 109.95 11.9981 109.393 11.6307C108.837 11.2595 108.401 10.7367 108.087 10.0625C107.772 9.38447 107.615 8.58333 107.615 7.65909C107.615 6.74242 107.772 5.94697 108.087 5.27273C108.401 4.59848 108.839 4.07765 109.399 3.71023C109.96 3.3428 110.607 3.15909 111.342 3.15909C111.911 3.15909 112.359 3.25379 112.689 3.44318C113.022 3.62879 113.276 3.84091 113.45 4.07955C113.628 4.31439 113.767 4.50758 113.865 4.65909H113.979V0.363636H115.32V12H114.024V10.6591H113.865C113.767 10.8182 113.626 11.0189 113.445 11.2614C113.263 11.5 113.003 11.714 112.666 11.9034C112.329 12.089 111.88 12.1818 111.32 12.1818ZM111.501 10.9773C112.039 10.9773 112.494 10.8371 112.865 10.5568C113.236 10.2727 113.518 9.88068 113.712 9.38068C113.905 8.87689 114.001 8.29545 114.001 7.63636C114.001 6.98485 113.907 6.41477 113.717 5.92614C113.528 5.43371 113.248 5.05114 112.876 4.77841C112.505 4.50189 112.047 4.36364 111.501 4.36364C110.933 4.36364 110.46 4.50947 110.081 4.80114C109.706 5.08902 109.424 5.48106 109.234 5.97727C109.049 6.4697 108.956 7.02273 108.956 7.63636C108.956 8.25758 109.051 8.82197 109.24 9.32955C109.433 9.83333 109.717 10.2348 110.092 10.5341C110.471 10.8295 110.941 10.9773 111.501 10.9773Z" fill="#128DA1"/>
</svg>
