<svg width="80" height="13" viewBox="0 0 80 13" fill="none" xmlns="http://www.w3.org/2000/svg">
<path d="M1.81818 0.363636V12H0.409091V0.363636H1.81818ZM5.80256 6.75V12H4.46165V3.27273H5.7571V4.63636H5.87074C6.07528 4.19318 6.38589 3.83712 6.80256 3.56818C7.21922 3.29545 7.7571 3.15909 8.41619 3.15909C9.0071 3.15909 9.52415 3.2803 9.96733 3.52273C10.4105 3.76136 10.7552 4.125 11.0014 4.61364C11.2476 5.09848 11.3707 5.71212 11.3707 6.45455V12H10.0298V6.54545C10.0298 5.85985 9.8518 5.32576 9.49574 4.94318C9.13968 4.55682 8.65104 4.36364 8.02983 4.36364C7.6018 4.36364 7.21922 4.45644 6.8821 4.64205C6.54877 4.82765 6.28551 5.09848 6.09233 5.45455C5.89915 5.81061 5.80256 6.24242 5.80256 6.75ZM20.0028 5.22727L18.7983 5.56818C18.7225 5.36742 18.6108 5.17235 18.4631 4.98295C18.3191 4.78977 18.1222 4.63068 17.8722 4.50568C17.6222 4.38068 17.3021 4.31818 16.9119 4.31818C16.3778 4.31818 15.9328 4.44129 15.5767 4.6875C15.2244 4.92992 15.0483 5.23864 15.0483 5.61364C15.0483 5.94697 15.1695 6.21023 15.4119 6.40341C15.6544 6.59659 16.0331 6.75758 16.5483 6.88636L17.8438 7.20455C18.6241 7.39394 19.2055 7.68371 19.5881 8.07386C19.9706 8.46023 20.1619 8.95833 20.1619 9.56818C20.1619 10.0682 20.018 10.5152 19.7301 10.9091C19.446 11.303 19.0483 11.6136 18.5369 11.8409C18.0256 12.0682 17.4309 12.1818 16.7528 12.1818C15.8627 12.1818 15.1259 11.9886 14.5426 11.6023C13.9593 11.2159 13.59 10.6515 13.4347 9.90909L14.7074 9.59091C14.8286 10.0606 15.0578 10.4129 15.3949 10.6477C15.7358 10.8826 16.1809 11 16.7301 11C17.3551 11 17.8513 10.8674 18.2188 10.6023C18.59 10.3333 18.7756 10.0114 18.7756 9.63636C18.7756 9.33333 18.6695 9.07955 18.4574 8.875C18.2453 8.66667 17.9195 8.51136 17.4801 8.40909L16.0256 8.06818C15.2263 7.87879 14.6392 7.58523 14.2642 7.1875C13.893 6.78598 13.7074 6.28409 13.7074 5.68182C13.7074 5.18939 13.8456 4.75379 14.1222 4.375C14.4025 3.99621 14.7831 3.69886 15.2642 3.48295C15.7491 3.26705 16.2983 3.15909 16.9119 3.15909C17.7756 3.15909 18.4536 3.34848 18.946 3.72727C19.4422 4.10606 19.7945 4.60606 20.0028 5.22727ZM25.9759 3.27273V4.40909H21.4531V3.27273H25.9759ZM22.7713 1.18182H24.1122V9.5C24.1122 9.87879 24.1671 10.1629 24.277 10.3523C24.3906 10.5379 24.5346 10.6629 24.7088 10.7273C24.8868 10.7879 25.0743 10.8182 25.2713 10.8182C25.419 10.8182 25.5402 10.8106 25.6349 10.7955C25.7296 10.7765 25.8054 10.7614 25.8622 10.75L26.1349 11.9545C26.044 11.9886 25.9171 12.0227 25.7543 12.0568C25.5914 12.0947 25.3849 12.1136 25.1349 12.1136C24.7562 12.1136 24.3849 12.0322 24.0213 11.8693C23.6615 11.7064 23.3622 11.4583 23.1236 11.125C22.8887 10.7917 22.7713 10.3712 22.7713 9.86364V1.18182ZM30.5611 12.2045C30.008 12.2045 29.5062 12.1004 29.0554 11.892C28.6046 11.6799 28.2467 11.375 27.9815 10.9773C27.7164 10.5758 27.5838 10.0909 27.5838 9.52273C27.5838 9.02273 27.6823 8.61742 27.8793 8.30682C28.0762 7.99242 28.3395 7.74621 28.669 7.56818C28.9986 7.39015 29.3622 7.25758 29.7599 7.17045C30.1615 7.07955 30.5649 7.00758 30.9702 6.95455C31.5005 6.88636 31.9304 6.83523 32.2599 6.80114C32.5933 6.76326 32.8357 6.70076 32.9872 6.61364C33.1425 6.52652 33.2202 6.375 33.2202 6.15909V6.11364C33.2202 5.55303 33.0668 5.11742 32.7599 4.80682C32.4569 4.49621 31.9967 4.34091 31.3793 4.34091C30.7391 4.34091 30.2372 4.48106 29.8736 4.76136C29.5099 5.04167 29.2543 5.34091 29.1065 5.65909L27.8338 5.20455C28.0611 4.67424 28.3641 4.26136 28.7429 3.96591C29.1255 3.66667 29.5421 3.45833 29.9929 3.34091C30.4474 3.2197 30.8944 3.15909 31.3338 3.15909C31.6141 3.15909 31.9361 3.19318 32.2997 3.26136C32.6671 3.32576 33.0213 3.46023 33.3622 3.66477C33.7069 3.86932 33.9929 4.17803 34.2202 4.59091C34.4474 5.00379 34.5611 5.55682 34.5611 6.25V12H33.2202V10.8182H33.152C33.0611 11.0076 32.9096 11.2102 32.6974 11.4261C32.4853 11.642 32.2031 11.8258 31.8509 11.9773C31.4986 12.1288 31.0687 12.2045 30.5611 12.2045ZM30.7656 11C31.2959 11 31.7429 10.8958 32.1065 10.6875C32.474 10.4792 32.7505 10.2102 32.9361 9.88068C33.1255 9.55114 33.2202 9.20455 33.2202 8.84091V7.61364C33.1634 7.68182 33.0384 7.74432 32.8452 7.80114C32.6558 7.85417 32.4361 7.90151 32.1861 7.94318C31.9399 7.98106 31.6993 8.01515 31.4645 8.04545C31.2334 8.07197 31.0459 8.0947 30.902 8.11364C30.5535 8.15909 30.2277 8.23295 29.9247 8.33523C29.6255 8.43371 29.383 8.58333 29.1974 8.78409C29.0156 8.98106 28.9247 9.25 28.9247 9.59091C28.9247 10.0568 29.0971 10.4091 29.4418 10.6477C29.7902 10.8826 30.2315 11 30.7656 11ZM38.3494 0.363636V12H37.0085V0.363636H38.3494ZM42.1463 0.363636V12H40.8054V0.363636H42.1463ZM47.1705 12.2045C46.6174 12.2045 46.1155 12.1004 45.6648 11.892C45.214 11.6799 44.8561 11.375 44.5909 10.9773C44.3258 10.5758 44.1932 10.0909 44.1932 9.52273C44.1932 9.02273 44.2917 8.61742 44.4886 8.30682C44.6856 7.99242 44.9489 7.74621 45.2784 7.56818C45.608 7.39015 45.9716 7.25758 46.3693 7.17045C46.7708 7.07955 47.1742 7.00758 47.5795 6.95455C48.1098 6.88636 48.5398 6.83523 48.8693 6.80114C49.2027 6.76326 49.4451 6.70076 49.5966 6.61364C49.7519 6.52652 49.8295 6.375 49.8295 6.15909V6.11364C49.8295 5.55303 49.6761 5.11742 49.3693 4.80682C49.0663 4.49621 48.6061 4.34091 47.9886 4.34091C47.3485 4.34091 46.8466 4.48106 46.483 4.76136C46.1193 5.04167 45.8636 5.34091 45.7159 5.65909L44.4432 5.20455C44.6705 4.67424 44.9735 4.26136 45.3523 3.96591C45.7348 3.66667 46.1515 3.45833 46.6023 3.34091C47.0568 3.2197 47.5038 3.15909 47.9432 3.15909C48.2235 3.15909 48.5455 3.19318 48.9091 3.26136C49.2765 3.32576 49.6307 3.46023 49.9716 3.66477C50.3163 3.86932 50.6023 4.17803 50.8295 4.59091C51.0568 5.00379 51.1705 5.55682 51.1705 6.25V12H49.8295V10.8182H49.7614C49.6705 11.0076 49.5189 11.2102 49.3068 11.4261C49.0947 11.642 48.8125 11.8258 48.4602 11.9773C48.108 12.1288 47.678 12.2045 47.1705 12.2045ZM47.375 11C47.9053 11 48.3523 10.8958 48.7159 10.6875C49.0833 10.4792 49.3598 10.2102 49.5455 9.88068C49.7348 9.55114 49.8295 9.20455 49.8295 8.84091V7.61364C49.7727 7.68182 49.6477 7.74432 49.4545 7.80114C49.2652 7.85417 49.0455 7.90151 48.7955 7.94318C48.5492 7.98106 48.3087 8.01515 48.0739 8.04545C47.8428 8.07197 47.6553 8.0947 47.5114 8.11364C47.1629 8.15909 46.8371 8.23295 46.5341 8.33523C46.2348 8.43371 45.9924 8.58333 45.8068 8.78409C45.625 8.98106 45.5341 9.25 45.5341 9.59091C45.5341 10.0568 45.7064 10.4091 46.0511 10.6477C46.3996 10.8826 46.8409 11 47.375 11ZM57.4134 3.27273V4.40909H52.8906V3.27273H57.4134ZM54.2088 1.18182H55.5497V9.5C55.5497 9.87879 55.6046 10.1629 55.7145 10.3523C55.8281 10.5379 55.9721 10.6629 56.1463 10.7273C56.3243 10.7879 56.5118 10.8182 56.7088 10.8182C56.8565 10.8182 56.9777 10.8106 57.0724 10.7955C57.1671 10.7765 57.2429 10.7614 57.2997 10.75L57.5724 11.9545C57.4815 11.9886 57.3546 12.0227 57.1918 12.0568C57.0289 12.0947 56.8224 12.1136 56.5724 12.1136C56.1937 12.1136 55.8224 12.0322 55.4588 11.8693C55.099 11.7064 54.7997 11.4583 54.5611 11.125C54.3262 10.7917 54.2088 10.3712 54.2088 9.86364V1.18182ZM59.4304 12V3.27273H60.7713V12H59.4304ZM60.1122 1.81818C59.8509 1.81818 59.6255 1.72917 59.4361 1.55114C59.2505 1.37311 59.1577 1.15909 59.1577 0.909091C59.1577 0.659091 59.2505 0.445076 59.4361 0.267045C59.6255 0.089015 59.8509 0 60.1122 0C60.3736 0 60.5971 0.089015 60.7827 0.267045C60.9721 0.445076 61.0668 0.659091 61.0668 0.909091C61.0668 1.15909 60.9721 1.37311 60.7827 1.55114C60.5971 1.72917 60.3736 1.81818 60.1122 1.81818ZM66.7727 12.1818C65.9848 12.1818 65.2936 11.9943 64.6989 11.6193C64.108 11.2443 63.6458 10.7197 63.3125 10.0455C62.983 9.37121 62.8182 8.58333 62.8182 7.68182C62.8182 6.77273 62.983 5.97917 63.3125 5.30114C63.6458 4.62311 64.108 4.09659 64.6989 3.72159C65.2936 3.34659 65.9848 3.15909 66.7727 3.15909C67.5606 3.15909 68.25 3.34659 68.8409 3.72159C69.4356 4.09659 69.8977 4.62311 70.2273 5.30114C70.5606 5.97917 70.7273 6.77273 70.7273 7.68182C70.7273 8.58333 70.5606 9.37121 70.2273 10.0455C69.8977 10.7197 69.4356 11.2443 68.8409 11.6193C68.25 11.9943 67.5606 12.1818 66.7727 12.1818ZM66.7727 10.9773C67.3712 10.9773 67.8636 10.8239 68.25 10.517C68.6364 10.2102 68.9223 9.80682 69.108 9.30682C69.2936 8.80682 69.3864 8.26515 69.3864 7.68182C69.3864 7.09848 69.2936 6.55492 69.108 6.05114C68.9223 5.54735 68.6364 5.14015 68.25 4.82955C67.8636 4.51894 67.3712 4.36364 66.7727 4.36364C66.1742 4.36364 65.6818 4.51894 65.2955 4.82955C64.9091 5.14015 64.6231 5.54735 64.4375 6.05114C64.2519 6.55492 64.1591 7.09848 64.1591 7.68182C64.1591 8.26515 64.2519 8.80682 64.4375 9.30682C64.6231 9.80682 64.9091 10.2102 65.2955 10.517C65.6818 10.8239 66.1742 10.9773 66.7727 10.9773ZM74.1151 6.75V12H72.7741V3.27273H74.0696V4.63636H74.1832C74.3878 4.19318 74.6984 3.83712 75.1151 3.56818C75.5317 3.29545 76.0696 3.15909 76.7287 3.15909C77.3196 3.15909 77.8366 3.2803 78.2798 3.52273C78.723 3.76136 79.0677 4.125 79.3139 4.61364C79.5601 5.09848 79.6832 5.71212 79.6832 6.45455V12H78.3423V6.54545C78.3423 5.85985 78.1643 5.32576 77.8082 4.94318C77.4522 4.55682 76.9635 4.36364 76.3423 4.36364C75.9143 4.36364 75.5317 4.45644 75.1946 4.64205C74.8613 4.82765 74.598 5.09848 74.4048 5.45455C74.2116 5.81061 74.1151 6.24242 74.1151 6.75Z" fill="#128DA1"/>
</svg>
