<svg width="86" height="13" viewBox="0 0 86 13" fill="none" xmlns="http://www.w3.org/2000/svg">
<path d="M11.2273 6.18182C11.2273 7.40909 11.0057 8.4697 10.5625 9.36364C10.1193 10.2576 9.51136 10.947 8.73864 11.4318C7.96591 11.9167 7.08333 12.1591 6.09091 12.1591C5.09849 12.1591 4.21591 11.9167 3.44318 11.4318C2.67045 10.947 2.0625 10.2576 1.61932 9.36364C1.17614 8.4697 0.954545 7.40909 0.954545 6.18182C0.954545 4.95455 1.17614 3.89394 1.61932 3C2.0625 2.10606 2.67045 1.41667 3.44318 0.931818C4.21591 0.446969 5.09849 0.204545 6.09091 0.204545C7.08333 0.204545 7.96591 0.446969 8.73864 0.931818C9.51136 1.41667 10.1193 2.10606 10.5625 3C11.0057 3.89394 11.2273 4.95455 11.2273 6.18182ZM9.86364 6.18182C9.86364 5.17424 9.69508 4.32386 9.35795 3.63068C9.02462 2.9375 8.57197 2.41288 8 2.05682C7.43182 1.70076 6.79545 1.52273 6.09091 1.52273C5.38636 1.52273 4.74811 1.70076 4.17614 2.05682C3.60795 2.41288 3.1553 2.9375 2.81818 3.63068C2.48485 4.32386 2.31818 5.17424 2.31818 6.18182C2.31818 7.18939 2.48485 8.03977 2.81818 8.73295C3.1553 9.42614 3.60795 9.95076 4.17614 10.3068C4.74811 10.6629 5.38636 10.8409 6.09091 10.8409C6.79545 10.8409 7.43182 10.6629 8 10.3068C8.57197 9.95076 9.02462 9.42614 9.35795 8.73295C9.69508 8.03977 9.86364 7.18939 9.86364 6.18182ZM17.2102 3.27273V4.40909H12.6875V3.27273H17.2102ZM14.0057 1.18182H15.3466V9.5C15.3466 9.87879 15.4015 10.1629 15.5114 10.3523C15.625 10.5379 15.7689 10.6629 15.9432 10.7273C16.1212 10.7879 16.3087 10.8182 16.5057 10.8182C16.6534 10.8182 16.7746 10.8106 16.8693 10.7955C16.964 10.7765 17.0398 10.7614 17.0966 10.75L17.3693 11.9545C17.2784 11.9886 17.1515 12.0227 16.9886 12.0568C16.8258 12.0947 16.6193 12.1136 16.3693 12.1136C15.9905 12.1136 15.6193 12.0322 15.2557 11.8693C14.8958 11.7064 14.5966 11.4583 14.358 11.125C14.1231 10.7917 14.0057 10.3712 14.0057 9.86364V1.18182ZM20.7557 6.75V12H19.4148V0.363636H20.7557V4.63636H20.8693C21.0739 4.18561 21.3807 3.82765 21.7898 3.5625C22.2027 3.29356 22.7519 3.15909 23.4375 3.15909C24.0322 3.15909 24.553 3.27841 25 3.51705C25.447 3.75189 25.7936 4.11364 26.0398 4.60227C26.2898 5.08712 26.4148 5.70455 26.4148 6.45455V12H25.0739V6.54545C25.0739 5.85227 24.8939 5.31629 24.5341 4.9375C24.178 4.55492 23.6837 4.36364 23.0511 4.36364C22.6117 4.36364 22.2178 4.45644 21.8693 4.64205C21.5246 4.82765 21.2519 5.09848 21.0511 5.45455C20.8542 5.81061 20.7557 6.24242 20.7557 6.75ZM32.527 12.1818C31.6861 12.1818 30.9607 11.9962 30.3509 11.625C29.7448 11.25 29.277 10.7273 28.9474 10.0568C28.6217 9.38258 28.4588 8.59848 28.4588 7.70455C28.4588 6.81061 28.6217 6.02273 28.9474 5.34091C29.277 4.6553 29.7353 4.12121 30.3224 3.73864C30.9134 3.35227 31.6027 3.15909 32.3906 3.15909C32.8452 3.15909 33.294 3.23485 33.7372 3.38636C34.1804 3.53788 34.5838 3.78409 34.9474 4.125C35.3111 4.46212 35.6009 4.90909 35.8168 5.46591C36.0327 6.02273 36.1406 6.70833 36.1406 7.52273V8.09091H29.4134V6.93182H34.777C34.777 6.43939 34.6785 6 34.4815 5.61364C34.2884 5.22727 34.0118 4.92235 33.652 4.69886C33.2959 4.47538 32.8755 4.36364 32.3906 4.36364C31.8565 4.36364 31.3944 4.49621 31.0043 4.76136C30.6179 5.02273 30.3205 5.36364 30.1122 5.78409C29.9039 6.20455 29.7997 6.6553 29.7997 7.13636V7.90909C29.7997 8.56818 29.9134 9.12689 30.1406 9.58523C30.3717 10.0398 30.6918 10.3864 31.1009 10.625C31.5099 10.8598 31.9853 10.9773 32.527 10.9773C32.8793 10.9773 33.1974 10.928 33.4815 10.8295C33.7694 10.7273 34.0175 10.5758 34.2259 10.375C34.4342 10.1705 34.5952 9.91667 34.7088 9.61364L36.0043 9.97727C35.8679 10.4167 35.6387 10.803 35.3168 11.1364C34.9948 11.4659 34.5971 11.7235 34.1236 11.9091C33.6501 12.0909 33.1179 12.1818 32.527 12.1818ZM38.1804 12V3.27273H39.4759V4.59091H39.5668C39.7259 4.15909 40.0137 3.80871 40.4304 3.53977C40.8471 3.27083 41.3168 3.13636 41.8395 3.13636C41.938 3.13636 42.0611 3.13826 42.2088 3.14205C42.3565 3.14583 42.4683 3.15152 42.544 3.15909V4.52273C42.4986 4.51136 42.3944 4.49432 42.2315 4.47159C42.0724 4.44508 41.9039 4.43182 41.7259 4.43182C41.3016 4.43182 40.9228 4.52083 40.5895 4.69886C40.2599 4.87311 39.9986 5.11553 39.8054 5.42614C39.616 5.73295 39.5213 6.08333 39.5213 6.47727V12H38.1804ZM48.8153 12V0.363636H50.2244V10.75H55.6335V12H48.8153ZM57.6335 12V3.27273H58.9744V12H57.6335ZM58.3153 1.81818C58.054 1.81818 57.8286 1.72917 57.6392 1.55114C57.4536 1.37311 57.3608 1.15909 57.3608 0.909091C57.3608 0.659091 57.4536 0.445076 57.6392 0.267045C57.8286 0.089015 58.054 0 58.3153 0C58.5767 0 58.8002 0.089015 58.9858 0.267045C59.1752 0.445076 59.2699 0.659091 59.2699 0.909091C59.2699 1.15909 59.1752 1.37311 58.9858 1.55114C58.8002 1.72917 58.5767 1.81818 58.3153 1.81818ZM62.7713 6.75V12H61.4304V3.27273H62.7259V4.63636H62.8395C63.044 4.19318 63.3546 3.83712 63.7713 3.56818C64.188 3.29545 64.7259 3.15909 65.3849 3.15909C65.9759 3.15909 66.4929 3.2803 66.9361 3.52273C67.3793 3.76136 67.724 4.125 67.9702 4.61364C68.2164 5.09848 68.3395 5.71212 68.3395 6.45455V12H66.9986V6.54545C66.9986 5.85985 66.8205 5.32576 66.4645 4.94318C66.1084 4.55682 65.6198 4.36364 64.9986 4.36364C64.5705 4.36364 64.188 4.45644 63.8509 4.64205C63.5175 4.82765 63.2543 5.09848 63.0611 5.45455C62.8679 5.81061 62.7713 6.24242 62.7713 6.75ZM72.0398 8.81818L72.017 7.15909H72.2898L76.108 3.27273H77.767L73.6989 7.38636H73.5852L72.0398 8.81818ZM70.7898 12V0.363636H72.1307V12H70.7898ZM76.3352 12L72.9261 7.68182L73.8807 6.75L78.0398 12H76.3352ZM85.6747 5.22727L84.4702 5.56818C84.3944 5.36742 84.2827 5.17235 84.1349 4.98295C83.991 4.78977 83.794 4.63068 83.544 4.50568C83.294 4.38068 82.974 4.31818 82.5838 4.31818C82.0497 4.31818 81.6046 4.44129 81.2486 4.6875C80.8963 4.92992 80.7202 5.23864 80.7202 5.61364C80.7202 5.94697 80.8414 6.21023 81.0838 6.40341C81.3262 6.59659 81.705 6.75758 82.2202 6.88636L83.5156 7.20455C84.2959 7.39394 84.8774 7.68371 85.2599 8.07386C85.6425 8.46023 85.8338 8.95833 85.8338 9.56818C85.8338 10.0682 85.6899 10.5152 85.402 10.9091C85.1179 11.303 84.7202 11.6136 84.2088 11.8409C83.6974 12.0682 83.1027 12.1818 82.4247 12.1818C81.5346 12.1818 80.7978 11.9886 80.2145 11.6023C79.6312 11.2159 79.2618 10.6515 79.1065 9.90909L80.3793 9.59091C80.5005 10.0606 80.7296 10.4129 81.0668 10.6477C81.4077 10.8826 81.8527 11 82.402 11C83.027 11 83.5232 10.8674 83.8906 10.6023C84.2618 10.3333 84.4474 10.0114 84.4474 9.63636C84.4474 9.33333 84.3414 9.07955 84.1293 8.875C83.9171 8.66667 83.5914 8.51136 83.152 8.40909L81.6974 8.06818C80.8982 7.87879 80.3111 7.58523 79.9361 7.1875C79.5649 6.78598 79.3793 6.28409 79.3793 5.68182C79.3793 5.18939 79.5175 4.75379 79.794 4.375C80.0743 3.99621 80.455 3.69886 80.9361 3.48295C81.4209 3.26705 81.9702 3.15909 82.5838 3.15909C83.4474 3.15909 84.1255 3.34848 84.6179 3.72727C85.1141 4.10606 85.4664 4.60606 85.6747 5.22727Z" fill="#128DA1"/>
</svg>
