<svg width="81" height="16" viewBox="0 0 81 16" fill="none" xmlns="http://www.w3.org/2000/svg">
<path d="M7.77273 3.27273C7.70455 2.69697 7.42803 2.25 6.94318 1.93182C6.45833 1.61364 5.86364 1.45455 5.15909 1.45455C4.64394 1.45455 4.19318 1.53788 3.80682 1.70455C3.42424 1.87121 3.125 2.10038 2.90909 2.39205C2.69697 2.68371 2.59091 3.01515 2.59091 3.38636C2.59091 3.69697 2.66477 3.96401 2.8125 4.1875C2.96402 4.4072 3.1572 4.59091 3.39205 4.73864C3.62689 4.88258 3.87311 5.00189 4.13068 5.09659C4.38826 5.1875 4.625 5.26136 4.84091 5.31818L6.02273 5.63636C6.32576 5.71591 6.66288 5.82576 7.03409 5.96591C7.40909 6.10606 7.76705 6.29735 8.10795 6.53977C8.45265 6.77841 8.73674 7.08523 8.96023 7.46023C9.18371 7.83523 9.29545 8.29545 9.29545 8.84091C9.29545 9.4697 9.13068 10.0379 8.80114 10.5455C8.47538 11.053 7.99811 11.4564 7.36932 11.7557C6.74432 12.0549 5.98485 12.2045 5.09091 12.2045C4.25758 12.2045 3.53598 12.0701 2.92614 11.8011C2.32008 11.5322 1.8428 11.1572 1.49432 10.6761C1.14962 10.1951 0.954545 9.63636 0.909091 9H2.36364C2.40152 9.43939 2.54924 9.80303 2.80682 10.0909C3.06818 10.375 3.39773 10.5871 3.79545 10.7273C4.19697 10.8636 4.62879 10.9318 5.09091 10.9318C5.62879 10.9318 6.11174 10.8447 6.53977 10.6705C6.9678 10.4924 7.30682 10.2462 7.55682 9.93182C7.80682 9.61364 7.93182 9.24242 7.93182 8.81818C7.93182 8.43182 7.82386 8.11742 7.60795 7.875C7.39205 7.63258 7.10795 7.43561 6.75568 7.28409C6.40341 7.13258 6.02273 7 5.61364 6.88636L4.18182 6.47727C3.27273 6.21591 2.55303 5.8428 2.02273 5.35795C1.49242 4.87311 1.22727 4.23864 1.22727 3.45455C1.22727 2.80303 1.40341 2.23485 1.75568 1.75C2.11174 1.26136 2.58902 0.882575 3.1875 0.613636C3.78977 0.340909 4.46212 0.204545 5.20455 0.204545C5.95455 0.204545 6.62121 0.339015 7.20455 0.607954C7.78788 0.873105 8.25 1.23674 8.59091 1.69886C8.93561 2.16098 9.11742 2.68561 9.13636 3.27273H7.77273ZM16.9304 8.43182V3.27273H18.2713V12H16.9304V10.5227H16.8395C16.6349 10.9659 16.3168 11.3428 15.8849 11.6534C15.4531 11.9602 14.9077 12.1136 14.2486 12.1136C13.7031 12.1136 13.2183 11.9943 12.794 11.7557C12.3698 11.5133 12.0365 11.1496 11.794 10.6648C11.5516 10.1761 11.4304 9.56061 11.4304 8.81818V3.27273H12.7713V8.72727C12.7713 9.36364 12.9493 9.87121 13.3054 10.25C13.6652 10.6288 14.1236 10.8182 14.6804 10.8182C15.0137 10.8182 15.3527 10.733 15.6974 10.5625C16.0459 10.392 16.3376 10.1307 16.5724 9.77841C16.8111 9.42614 16.9304 8.97727 16.9304 8.43182ZM20.7273 15.2727V3.27273H22.0227V4.65909H22.1818C22.2803 4.50758 22.4167 4.31439 22.5909 4.07955C22.7689 3.84091 23.0227 3.62879 23.3523 3.44318C23.6856 3.25379 24.1364 3.15909 24.7045 3.15909C25.4394 3.15909 26.0871 3.3428 26.6477 3.71023C27.2083 4.07765 27.6458 4.59848 27.9602 5.27273C28.2746 5.94697 28.4318 6.74242 28.4318 7.65909C28.4318 8.58333 28.2746 9.38447 27.9602 10.0625C27.6458 10.7367 27.2102 11.2595 26.6534 11.6307C26.0966 11.9981 25.4545 12.1818 24.7273 12.1818C24.1667 12.1818 23.7178 12.089 23.3807 11.9034C23.0436 11.714 22.7841 11.5 22.6023 11.2614C22.4205 11.0189 22.2803 10.8182 22.1818 10.6591H22.0682V15.2727H20.7273ZM22.0455 7.63636C22.0455 8.29545 22.142 8.87689 22.3352 9.38068C22.5284 9.88068 22.8106 10.2727 23.1818 10.5568C23.553 10.8371 24.0076 10.9773 24.5455 10.9773C25.1061 10.9773 25.5739 10.8295 25.9489 10.5341C26.3277 10.2348 26.6117 9.83333 26.8011 9.32955C26.9943 8.82197 27.0909 8.25758 27.0909 7.63636C27.0909 7.02273 26.9962 6.4697 26.8068 5.97727C26.6212 5.48106 26.339 5.08902 25.9602 4.80114C25.5852 4.50947 25.1136 4.36364 24.5455 4.36364C24 4.36364 23.5417 4.50189 23.1705 4.77841C22.7992 5.05114 22.5189 5.43371 22.3295 5.92614C22.1402 6.41477 22.0455 6.98485 22.0455 7.63636ZM30.4773 15.2727V3.27273H31.7727V4.65909H31.9318C32.0303 4.50758 32.1667 4.31439 32.3409 4.07955C32.5189 3.84091 32.7727 3.62879 33.1023 3.44318C33.4356 3.25379 33.8864 3.15909 34.4545 3.15909C35.1894 3.15909 35.8371 3.3428 36.3977 3.71023C36.9583 4.07765 37.3958 4.59848 37.7102 5.27273C38.0246 5.94697 38.1818 6.74242 38.1818 7.65909C38.1818 8.58333 38.0246 9.38447 37.7102 10.0625C37.3958 10.7367 36.9602 11.2595 36.4034 11.6307C35.8466 11.9981 35.2045 12.1818 34.4773 12.1818C33.9167 12.1818 33.4678 12.089 33.1307 11.9034C32.7936 11.714 32.5341 11.5 32.3523 11.2614C32.1705 11.0189 32.0303 10.8182 31.9318 10.6591H31.8182V15.2727H30.4773ZM31.7955 7.63636C31.7955 8.29545 31.892 8.87689 32.0852 9.38068C32.2784 9.88068 32.5606 10.2727 32.9318 10.5568C33.303 10.8371 33.7576 10.9773 34.2955 10.9773C34.8561 10.9773 35.3239 10.8295 35.6989 10.5341C36.0777 10.2348 36.3617 9.83333 36.5511 9.32955C36.7443 8.82197 36.8409 8.25758 36.8409 7.63636C36.8409 7.02273 36.7462 6.4697 36.5568 5.97727C36.3712 5.48106 36.089 5.08902 35.7102 4.80114C35.3352 4.50947 34.8636 4.36364 34.2955 4.36364C33.75 4.36364 33.2917 4.50189 32.9205 4.77841C32.5492 5.05114 32.2689 5.43371 32.0795 5.92614C31.8902 6.41477 31.7955 6.98485 31.7955 7.63636ZM43.7727 12.1818C42.9848 12.1818 42.2936 11.9943 41.6989 11.6193C41.108 11.2443 40.6458 10.7197 40.3125 10.0455C39.983 9.37121 39.8182 8.58333 39.8182 7.68182C39.8182 6.77273 39.983 5.97917 40.3125 5.30114C40.6458 4.62311 41.108 4.09659 41.6989 3.72159C42.2936 3.34659 42.9848 3.15909 43.7727 3.15909C44.5606 3.15909 45.25 3.34659 45.8409 3.72159C46.4356 4.09659 46.8977 4.62311 47.2273 5.30114C47.5606 5.97917 47.7273 6.77273 47.7273 7.68182C47.7273 8.58333 47.5606 9.37121 47.2273 10.0455C46.8977 10.7197 46.4356 11.2443 45.8409 11.6193C45.25 11.9943 44.5606 12.1818 43.7727 12.1818ZM43.7727 10.9773C44.3712 10.9773 44.8636 10.8239 45.25 10.517C45.6364 10.2102 45.9223 9.80682 46.108 9.30682C46.2936 8.80682 46.3864 8.26515 46.3864 7.68182C46.3864 7.09848 46.2936 6.55492 46.108 6.05114C45.9223 5.54735 45.6364 5.14015 45.25 4.82955C44.8636 4.51894 44.3712 4.36364 43.7727 4.36364C43.1742 4.36364 42.6818 4.51894 42.2955 4.82955C41.9091 5.14015 41.6231 5.54735 41.4375 6.05114C41.2519 6.55492 41.1591 7.09848 41.1591 7.68182C41.1591 8.26515 41.2519 8.80682 41.4375 9.30682C41.6231 9.80682 41.9091 10.2102 42.2955 10.517C42.6818 10.8239 43.1742 10.9773 43.7727 10.9773ZM49.7741 12V3.27273H51.0696V4.59091H51.1605C51.3196 4.15909 51.6075 3.80871 52.0241 3.53977C52.4408 3.27083 52.9105 3.13636 53.4332 3.13636C53.5317 3.13636 53.6548 3.13826 53.8026 3.14205C53.9503 3.14583 54.062 3.15152 54.1378 3.15909V4.52273C54.0923 4.51136 53.9882 4.49432 53.8253 4.47159C53.6662 4.44508 53.4976 4.43182 53.3196 4.43182C52.8954 4.43182 52.5166 4.52083 52.1832 4.69886C51.8537 4.87311 51.5923 5.11553 51.3991 5.42614C51.2098 5.73295 51.1151 6.08333 51.1151 6.47727V12H49.7741ZM60.0696 3.27273V4.40909H55.5469V3.27273H60.0696ZM56.8651 1.18182H58.206V9.5C58.206 9.87879 58.2609 10.1629 58.3707 10.3523C58.4844 10.5379 58.6283 10.6629 58.8026 10.7273C58.9806 10.7879 59.1681 10.8182 59.3651 10.8182C59.5128 10.8182 59.634 10.8106 59.7287 10.7955C59.8234 10.7765 59.8991 10.7614 59.956 10.75L60.2287 11.9545C60.1378 11.9886 60.0109 12.0227 59.848 12.0568C59.6851 12.0947 59.4787 12.1136 59.2287 12.1136C58.8499 12.1136 58.4787 12.0322 58.1151 11.8693C57.7552 11.7064 57.456 11.4583 57.2173 11.125C56.9825 10.7917 56.8651 10.3712 56.8651 9.86364V1.18182ZM73.5412 12.1818L67.7003 6.34091C67.2344 5.875 66.9238 5.33333 66.7685 4.71591C66.617 4.09848 66.6188 3.48485 66.7741 2.875C66.9295 2.26136 67.2382 1.72727 67.7003 1.27273C68.1738 0.806818 68.7135 0.498106 69.3196 0.346591C69.9295 0.191288 70.5374 0.191288 71.1435 0.346591C71.7533 0.501894 72.295 0.810606 72.7685 1.27273L73.5412 2.02273L74.3139 1.27273C74.7912 0.810606 75.3329 0.501894 75.9389 0.346591C76.545 0.191288 77.151 0.191288 77.7571 0.346591C78.367 0.498106 78.9086 0.806818 79.3821 1.27273C79.8442 1.72727 80.1529 2.26136 80.3082 2.875C80.4635 3.48485 80.4635 4.09848 80.3082 4.71591C80.1567 5.33333 79.848 5.875 79.3821 6.34091L73.5412 12.1818Z" fill="#128DA1"/>
</svg>
