<svg width="60" height="13" viewBox="0 0 60 13" fill="none" xmlns="http://www.w3.org/2000/svg">
<path d="M3.52273 12L0.340909 0.363636H1.77273L4.20455 9.84091H4.31818L6.79545 0.363636H8.38636L10.8636 9.84091H10.9773L13.4091 0.363636H14.8409L11.6591 12H10.2045L7.63636 2.72727H7.54545L4.97727 12H3.52273ZM19.2614 12.1818C18.4205 12.1818 17.6951 11.9962 17.0852 11.625C16.4792 11.25 16.0114 10.7273 15.6818 10.0568C15.3561 9.38258 15.1932 8.59848 15.1932 7.70455C15.1932 6.81061 15.3561 6.02273 15.6818 5.34091C16.0114 4.6553 16.4697 4.12121 17.0568 3.73864C17.6477 3.35227 18.3371 3.15909 19.125 3.15909C19.5795 3.15909 20.0284 3.23485 20.4716 3.38636C20.9148 3.53788 21.3182 3.78409 21.6818 4.125C22.0455 4.46212 22.3352 4.90909 22.5511 5.46591C22.767 6.02273 22.875 6.70833 22.875 7.52273V8.09091H16.1477V6.93182H21.5114C21.5114 6.43939 21.4129 6 21.2159 5.61364C21.0227 5.22727 20.7462 4.92235 20.3864 4.69886C20.0303 4.47538 19.6098 4.36364 19.125 4.36364C18.5909 4.36364 18.1288 4.49621 17.7386 4.76136C17.3523 5.02273 17.0549 5.36364 16.8466 5.78409C16.6383 6.20455 16.5341 6.6553 16.5341 7.13636V7.90909C16.5341 8.56818 16.6477 9.12689 16.875 9.58523C17.1061 10.0398 17.4261 10.3864 17.8352 10.625C18.2443 10.8598 18.7197 10.9773 19.2614 10.9773C19.6136 10.9773 19.9318 10.928 20.2159 10.8295C20.5038 10.7273 20.7519 10.5758 20.9602 10.375C21.1686 10.1705 21.3295 9.91667 21.4432 9.61364L22.7386 9.97727C22.6023 10.4167 22.3731 10.803 22.0511 11.1364C21.7292 11.4659 21.3314 11.7235 20.858 11.9091C20.3845 12.0909 19.8523 12.1818 19.2614 12.1818ZM25.0966 12V0.363636H26.4375V4.65909H26.5511C26.6496 4.50758 26.786 4.31439 26.9602 4.07955C27.1383 3.84091 27.392 3.62879 27.7216 3.44318C28.0549 3.25379 28.5057 3.15909 29.0739 3.15909C29.8087 3.15909 30.4564 3.3428 31.017 3.71023C31.5777 4.07765 32.0152 4.59848 32.3295 5.27273C32.6439 5.94697 32.8011 6.74242 32.8011 7.65909C32.8011 8.58333 32.6439 9.38447 32.3295 10.0625C32.0152 10.7367 31.5795 11.2595 31.0227 11.6307C30.4659 11.9981 29.8239 12.1818 29.0966 12.1818C28.536 12.1818 28.0871 12.089 27.75 11.9034C27.4129 11.714 27.1534 11.5 26.9716 11.2614C26.7898 11.0189 26.6496 10.8182 26.5511 10.6591H26.392V12H25.0966ZM26.4148 7.63636C26.4148 8.29545 26.5114 8.87689 26.7045 9.38068C26.8977 9.88068 27.1799 10.2727 27.5511 10.5568C27.9223 10.8371 28.3769 10.9773 28.9148 10.9773C29.4754 10.9773 29.9432 10.8295 30.3182 10.5341C30.697 10.2348 30.9811 9.83333 31.1705 9.32955C31.3636 8.82197 31.4602 8.25758 31.4602 7.63636C31.4602 7.02273 31.3655 6.4697 31.1761 5.97727C30.9905 5.48106 30.7083 5.08902 30.3295 4.80114C29.9545 4.50947 29.483 4.36364 28.9148 4.36364C28.3693 4.36364 27.911 4.50189 27.5398 4.77841C27.1686 5.05114 26.8883 5.43371 26.6989 5.92614C26.5095 6.41477 26.4148 6.98485 26.4148 7.63636ZM41.0341 5.22727L39.8295 5.56818C39.7538 5.36742 39.642 5.17235 39.4943 4.98295C39.3504 4.78977 39.1534 4.63068 38.9034 4.50568C38.6534 4.38068 38.3333 4.31818 37.9432 4.31818C37.4091 4.31818 36.964 4.44129 36.608 4.6875C36.2557 4.92992 36.0795 5.23864 36.0795 5.61364C36.0795 5.94697 36.2008 6.21023 36.4432 6.40341C36.6856 6.59659 37.0644 6.75758 37.5795 6.88636L38.875 7.20455C39.6553 7.39394 40.2367 7.68371 40.6193 8.07386C41.0019 8.46023 41.1932 8.95833 41.1932 9.56818C41.1932 10.0682 41.0492 10.5152 40.7614 10.9091C40.4773 11.303 40.0795 11.6136 39.5682 11.8409C39.0568 12.0682 38.4621 12.1818 37.7841 12.1818C36.8939 12.1818 36.1572 11.9886 35.5739 11.6023C34.9905 11.2159 34.6212 10.6515 34.4659 9.90909L35.7386 9.59091C35.8598 10.0606 36.089 10.4129 36.4261 10.6477C36.767 10.8826 37.2121 11 37.7614 11C38.3864 11 38.8826 10.8674 39.25 10.6023C39.6212 10.3333 39.8068 10.0114 39.8068 9.63636C39.8068 9.33333 39.7008 9.07955 39.4886 8.875C39.2765 8.66667 38.9508 8.51136 38.5114 8.40909L37.0568 8.06818C36.2576 7.87879 35.6705 7.58523 35.2955 7.1875C34.9242 6.78598 34.7386 6.28409 34.7386 5.68182C34.7386 5.18939 34.8769 4.75379 35.1534 4.375C35.4337 3.99621 35.8144 3.69886 36.2955 3.48295C36.7803 3.26705 37.3295 3.15909 37.9432 3.15909C38.8068 3.15909 39.4848 3.34848 39.9773 3.72727C40.4735 4.10606 40.8258 4.60606 41.0341 5.22727ZM43.2116 12V3.27273H44.5526V12H43.2116ZM43.8935 1.81818C43.6321 1.81818 43.4067 1.72917 43.2173 1.55114C43.0317 1.37311 42.9389 1.15909 42.9389 0.909091C42.9389 0.659091 43.0317 0.445076 43.2173 0.267045C43.4067 0.089015 43.6321 0 43.8935 0C44.1548 0 44.3783 0.089015 44.5639 0.267045C44.7533 0.445076 44.848 0.659091 44.848 0.909091C44.848 1.15909 44.7533 1.37311 44.5639 1.55114C44.3783 1.72917 44.1548 1.81818 43.8935 1.81818ZM50.804 3.27273V4.40909H46.2812V3.27273H50.804ZM47.5994 1.18182H48.9403V9.5C48.9403 9.87879 48.9953 10.1629 49.1051 10.3523C49.2188 10.5379 49.3627 10.6629 49.5369 10.7273C49.715 10.7879 49.9025 10.8182 50.0994 10.8182C50.2472 10.8182 50.3684 10.8106 50.4631 10.7955C50.5578 10.7765 50.6335 10.7614 50.6903 10.75L50.9631 11.9545C50.8722 11.9886 50.7453 12.0227 50.5824 12.0568C50.4195 12.0947 50.2131 12.1136 49.9631 12.1136C49.5843 12.1136 49.2131 12.0322 48.8494 11.8693C48.4896 11.7064 48.1903 11.4583 47.9517 11.125C47.7169 10.7917 47.5994 10.3712 47.5994 9.86364V1.18182ZM56.3864 12.1818C55.5455 12.1818 54.8201 11.9962 54.2102 11.625C53.6042 11.25 53.1364 10.7273 52.8068 10.0568C52.4811 9.38258 52.3182 8.59848 52.3182 7.70455C52.3182 6.81061 52.4811 6.02273 52.8068 5.34091C53.1364 4.6553 53.5947 4.12121 54.1818 3.73864C54.7727 3.35227 55.4621 3.15909 56.25 3.15909C56.7045 3.15909 57.1534 3.23485 57.5966 3.38636C58.0398 3.53788 58.4432 3.78409 58.8068 4.125C59.1705 4.46212 59.4602 4.90909 59.6761 5.46591C59.892 6.02273 60 6.70833 60 7.52273V8.09091H53.2727V6.93182H58.6364C58.6364 6.43939 58.5379 6 58.3409 5.61364C58.1477 5.22727 57.8712 4.92235 57.5114 4.69886C57.1553 4.47538 56.7348 4.36364 56.25 4.36364C55.7159 4.36364 55.2538 4.49621 54.8636 4.76136C54.4773 5.02273 54.1799 5.36364 53.9716 5.78409C53.7633 6.20455 53.6591 6.6553 53.6591 7.13636V7.90909C53.6591 8.56818 53.7727 9.12689 54 9.58523C54.2311 10.0398 54.5511 10.3864 54.9602 10.625C55.3693 10.8598 55.8447 10.9773 56.3864 10.9773C56.7386 10.9773 57.0568 10.928 57.3409 10.8295C57.6288 10.7273 57.8769 10.5758 58.0852 10.375C58.2936 10.1705 58.4545 9.91667 58.5682 9.61364L59.8636 9.97727C59.7273 10.4167 59.4981 10.803 59.1761 11.1364C58.8542 11.4659 58.4564 11.7235 57.983 11.9091C57.5095 12.0909 56.9773 12.1818 56.3864 12.1818Z" fill="#128DA1"/>
</svg>
